<?xml version="1.0" encoding="UTF-8"?>
<svg width="100px" height="100px" viewBox="0 0 100 100" version="1.1" xmlns="http://www.w3.org/2000/svg" xmlns:xlink="http://www.w3.org/1999/xlink">
    <g stroke="none" stroke-width="1" fill="none" fill-rule="evenodd">
        <path d="M50,0 C77.6142375,0 100,22.3857625 100,50 C100,77.6142375 77.6142375,100 50,100 C22.3857625,100 0,77.6142375 0,50 C0,22.3857625 22.3857625,0 50,0 Z" fill="#FF2D20"/>
        <path d="M85.4166667,68.75 L85.4166667,31.25 C85.4166667,27.0833333 82.0833333,23.75 77.9166667,23.75 L22.0833333,23.75 C17.9166667,23.75 14.5833333,27.0833333 14.5833333,31.25 L14.5833333,68.75 C14.5833333,72.9166667 17.9166667,76.25 22.0833333,76.25 L77.9166667,76.25 C82.0833333,76.25 85.4166667,72.9166667 85.4166667,68.75 Z M77.9166667,31.25 L77.9166667,68.75 L22.0833333,68.75 L22.0833333,31.25 L77.9166667,31.25 Z" fill="#FFFFFF"/>
        <path d="M35.4166667,56.25 L64.5833333,56.25 C66.6666667,56.25 68.75,54.1666667 68.75,52.0833333 C68.75,50 66.6666667,47.9166667 64.5833333,47.9166667 L35.4166667,47.9166667 C33.3333333,47.9166667 31.25,50 31.25,52.0833333 C31.25,54.1666667 33.3333333,56.25 35.4166667,56.25 Z" fill="#FFFFFF"/>
    </g>
</svg> 